<svg width="343.1375px" height="83.6px" xmlns="http://www.w3.org/2000/svg" viewBox="78.43125 33.2 343.1375 83.6" style="background: rgba(0, 0, 0, 0);" preserveAspectRatio="xMidYMid"><defs><linearGradient id="editing-gradient-gradient" x1="0" x2="1" y1="0.5" y2="0.5" gradientUnits="objectBoundingBox"><stop offset="0" stop-color="#f0f"></stop><stop offset="1" stop-color="#0ff"></stop></linearGradient></defs><g><g transform="translate(131.2199902534485, 91.92000198364258)"><path d="M11.45 0.43L11.45 0.43L11.45 0.43Q9.43 0.43 7.87-0.27L7.87-0.27L7.87-0.27Q6.30-0.97 5.22-2.23L5.22-2.23L5.22-2.23Q4.14-3.49 3.58-5.29L3.58-5.29L3.58-5.29Q3.02-7.09 3.02-9.29L3.02-9.29L3.02-9.29Q3.02-11.48 3.60-13.28L3.60-13.28L3.60-13.28Q4.18-15.08 5.26-16.36L5.26-16.36L5.26-16.36Q6.34-17.64 7.88-18.32L7.88-18.32L7.88-18.32Q9.43-19.01 11.41-19.01L11.41-19.01L11.41-19.01Q14.11-19.01 15.80-17.82L15.80-17.82L15.80-17.82Q17.50-16.63 18.29-14.72L18.29-14.72L15.98-13.50L15.98-13.50Q15.48-14.94 14.31-15.73L14.31-15.73L14.31-15.73Q13.14-16.52 11.41-16.52L11.41-16.52L11.41-16.52Q10.15-16.52 9.16-16.11L9.16-16.11L9.16-16.11Q8.17-15.70 7.49-14.94L7.49-14.94L7.49-14.94Q6.80-14.18 6.46-13.14L6.46-13.14L6.46-13.14Q6.12-12.10 6.12-10.87L6.12-10.87L6.12-7.70L6.12-7.70Q6.12-6.48 6.46-5.44L6.46-5.44L6.46-5.44Q6.80-4.39 7.49-3.64L7.49-3.64L7.49-3.64Q8.17-2.88 9.18-2.47L9.18-2.47L9.18-2.47Q10.19-2.05 11.48-2.05L11.48-2.05L11.48-2.05Q13.36-2.05 14.58-2.92L14.58-2.92L14.58-2.92Q15.80-3.78 16.52-5.29L16.52-5.29L18.58-3.89L18.58-3.89Q17.75-2.02 16.00-0.79L16.00-0.79L16.00-0.79Q14.26 0.43 11.45 0.43ZM32.72 0.43L32.72 0.43L32.72 0.43Q30.71 0.43 29.11-0.25L29.11-0.25L29.11-0.25Q27.50-0.94 26.37-2.21L26.37-2.21L26.37-2.21Q25.24-3.49 24.62-5.27L24.62-5.27L24.62-5.27Q24.01-7.06 24.01-9.25L24.01-9.25L24.01-9.25Q24.01-11.48 24.64-13.28L24.64-13.28L24.64-13.28Q25.27-15.08 26.39-16.36L26.39-16.36L26.39-16.36Q27.50-17.64 29.07-18.32L29.07-18.32L29.07-18.32Q30.64-19.01 32.54-19.01L32.54-19.01L32.54-19.01Q34.42-19.01 35.95-18.32L35.95-18.32L35.95-18.32Q37.48-17.64 38.56-16.43L38.56-16.43L38.56-16.43Q39.64-15.23 40.21-13.57L40.21-13.57L40.21-13.57Q40.79-11.92 40.79-9.94L40.79-9.94L40.79-8.57L27.04-8.57L27.04-7.70L27.04-7.70Q27.04-6.48 27.43-5.44L27.43-5.44L27.43-5.44Q27.83-4.39 28.57-3.64L28.57-3.64L28.57-3.64Q29.30-2.88 30.37-2.47L30.37-2.47L30.37-2.47Q31.43-2.05 32.72-2.05L32.72-2.05L32.72-2.05Q34.60-2.05 35.96-2.92L35.96-2.92L35.96-2.92Q37.33-3.78 38.05-5.29L38.05-5.29L40.18-3.85L40.18-3.85Q39.35-1.98 37.42-0.77L37.42-0.77L37.42-0.77Q35.50 0.43 32.72 0.43ZM32.54-16.63L32.54-16.63L32.54-16.63Q31.36-16.63 30.35-16.20L30.35-16.20L30.35-16.20Q29.34-15.77 28.60-15.01L28.60-15.01L28.60-15.01Q27.86-14.26 27.45-13.23L27.45-13.23L27.45-13.23Q27.04-12.20 27.04-10.98L27.04-10.98L27.04-10.73L37.69-10.73L37.69-11.12L37.69-11.12Q37.69-12.35 37.31-13.36L37.31-13.36L37.31-13.36Q36.94-14.36 36.27-15.10L36.27-15.10L36.27-15.10Q35.60-15.84 34.65-16.24L34.65-16.24L34.65-16.24Q33.70-16.63 32.54-16.63ZM46.62 7.20L46.62-18.58L49.50-18.58L49.50-15.55L49.64-15.55L49.64-15.55Q51.44-19.01 55.37-19.01L55.37-19.01L55.37-19.01Q58.79-19.01 60.71-16.45L60.71-16.45L60.71-16.45Q62.64-13.90 62.64-9.29L62.64-9.29L62.64-9.29Q62.64-4.68 60.71-2.12L60.71-2.12L60.71-2.12Q58.79 0.43 55.37 0.43L55.37 0.43L55.37 0.43Q51.44 0.43 49.64-3.02L49.64-3.02L49.50-3.02L49.50 7.20L46.62 7.20ZM54.25-2.12L54.25-2.12L54.25-2.12Q56.77-2.12 58.16-3.65L58.16-3.65L58.16-3.65Q59.54-5.18 59.54-7.70L59.54-7.70L59.54-10.87L59.54-10.87Q59.54-13.39 58.16-14.92L58.16-14.92L58.16-14.92Q56.77-16.45 54.25-16.45L54.25-16.45L54.25-16.45Q53.28-16.45 52.42-16.20L52.42-16.20L52.42-16.20Q51.55-15.95 50.90-15.46L50.90-15.46L50.90-15.46Q50.26-14.98 49.88-14.27L49.88-14.27L49.88-14.27Q49.50-13.57 49.50-12.64L49.50-12.64L49.50-5.94L49.50-5.94Q49.50-5.00 49.88-4.30L49.88-4.30L49.88-4.30Q50.26-3.60 50.90-3.11L50.90-3.11L50.90-3.11Q51.55-2.63 52.42-2.38L52.42-2.38L52.42-2.38Q53.28-2.12 54.25-2.12ZM75.92 0.43L75.92 0.43L75.92 0.43Q73.91 0.43 72.31-0.25L72.31-0.25L72.31-0.25Q70.70-0.94 69.57-2.21L69.57-2.21L69.57-2.21Q68.44-3.49 67.82-5.27L67.82-5.27L67.82-5.27Q67.21-7.06 67.21-9.25L67.21-9.25L67.21-9.25Q67.21-11.48 67.84-13.28L67.84-13.28L67.84-13.28Q68.47-15.08 69.59-16.36L69.59-16.36L69.59-16.36Q70.70-17.64 72.27-18.32L72.27-18.32L72.27-18.32Q73.84-19.01 75.74-19.01L75.74-19.01L75.74-19.01Q77.62-19.01 79.15-18.32L79.15-18.32L79.15-18.32Q80.68-17.64 81.76-16.43L81.76-16.43L81.76-16.43Q82.84-15.23 83.41-13.57L83.41-13.57L83.41-13.57Q83.99-11.92 83.99-9.94L83.99-9.94L83.99-8.57L70.24-8.57L70.24-7.70L70.24-7.70Q70.24-6.48 70.63-5.44L70.63-5.44L70.63-5.44Q71.03-4.39 71.77-3.64L71.77-3.64L71.77-3.64Q72.50-2.88 73.57-2.47L73.57-2.47L73.57-2.47Q74.63-2.05 75.92-2.05L75.92-2.05L75.92-2.05Q77.80-2.05 79.16-2.92L79.16-2.92L79.16-2.92Q80.53-3.78 81.25-5.29L81.25-5.29L83.38-3.85L83.38-3.85Q82.55-1.98 80.62-0.77L80.62-0.77L80.62-0.77Q78.70 0.43 75.92 0.43ZM75.74-16.63L75.74-16.63L75.74-16.63Q74.56-16.63 73.55-16.20L73.55-16.20L73.55-16.20Q72.54-15.77 71.80-15.01L71.80-15.01L71.80-15.01Q71.06-14.26 70.65-13.23L70.65-13.23L70.65-13.23Q70.24-12.20 70.24-10.98L70.24-10.98L70.24-10.73L80.89-10.73L80.89-11.12L80.89-11.12Q80.89-12.35 80.51-13.36L80.51-13.36L80.51-13.36Q80.14-14.36 79.47-15.10L79.47-15.10L79.47-15.10Q78.80-15.84 77.85-16.24L77.85-16.24L77.85-16.24Q76.90-16.63 75.74-16.63ZM101.70 0L101.70-3.02L101.56-3.02L101.56-3.02Q99.76 0.43 95.83 0.43L95.83 0.43L95.83 0.43Q92.41 0.43 90.49-2.12L90.49-2.12L90.49-2.12Q88.56-4.68 88.56-9.29L88.56-9.29L88.56-9.29Q88.56-13.90 90.49-16.45L90.49-16.45L90.49-16.45Q92.41-19.01 95.83-19.01L95.83-19.01L95.83-19.01Q99.76-19.01 101.56-15.55L101.56-15.55L101.70-15.55L101.70-26.64L104.58-26.64L104.58 0L101.70 0ZM96.95-2.12L96.95-2.12L96.95-2.12Q97.92-2.12 98.78-2.38L98.78-2.38L98.78-2.38Q99.65-2.63 100.30-3.11L100.30-3.11L100.30-3.11Q100.94-3.60 101.32-4.30L101.32-4.30L101.32-4.30Q101.70-5.00 101.70-5.94L101.70-5.94L101.70-12.64L101.70-12.64Q101.70-13.57 101.32-14.27L101.32-14.27L101.32-14.27Q100.94-14.98 100.30-15.46L100.30-15.46L100.30-15.46Q99.65-15.95 98.78-16.20L98.78-16.20L98.78-16.20Q97.92-16.45 96.95-16.45L96.95-16.45L96.95-16.45Q94.43-16.45 93.04-14.92L93.04-14.92L93.04-14.92Q91.66-13.39 91.66-10.87L91.66-10.87L91.66-7.70L91.66-7.70Q91.66-5.18 93.04-3.65L93.04-3.65L93.04-3.65Q94.43-2.12 96.95-2.12ZM123.19 0L123.19-3.02L123.05-3.02L123.05-3.02Q122.76-2.34 122.33-1.71L122.33-1.71L122.33-1.71Q121.90-1.08 121.27-0.61L121.27-0.61L121.27-0.61Q120.64-0.14 119.77 0.14L119.77 0.14L119.77 0.14Q118.91 0.43 117.76 0.43L117.76 0.43L117.76 0.43Q114.84 0.43 113.08-1.42L113.08-1.42L113.08-1.42Q111.31-3.28 111.31-6.66L111.31-6.66L111.31-18.58L114.19-18.58L114.19-7.16L114.19-7.16Q114.19-4.61 115.31-3.37L115.31-3.37L115.31-3.37Q116.42-2.12 118.58-2.12L118.58-2.12L118.58-2.12Q119.45-2.12 120.28-2.34L120.28-2.34L120.28-2.34Q121.10-2.56 121.75-2.99L121.75-2.99L121.75-2.99Q122.40-3.42 122.80-4.09L122.80-4.09L122.80-4.09Q123.19-4.75 123.19-5.69L123.19-5.69L123.19-18.58L126.07-18.58L126.07 0L123.19 0ZM140.62 0.43L140.62 0.43L140.62 0.43Q137.70 0.43 135.59-0.56L135.59-0.56L135.59-0.56Q133.49-1.55 132.01-3.20L132.01-3.20L133.96-4.90L133.96-4.90Q135.29-3.49 136.87-2.74L136.87-2.74L136.87-2.74Q138.46-1.98 140.69-1.98L140.69-1.98L140.69-1.98Q142.85-1.98 144.23-2.75L144.23-2.75L144.23-2.75Q145.62-3.53 145.62-5.18L145.62-5.18L145.62-5.18Q145.62-5.90 145.35-6.39L145.35-6.39L145.35-6.39Q145.08-6.88 144.61-7.16L144.61-7.16L144.61-7.16Q144.14-7.45 143.57-7.61L143.57-7.61L143.57-7.61Q142.99-7.78 142.34-7.88L142.34-7.88L139.43-8.32L139.43-8.32Q138.46-8.46 137.32-8.71L137.32-8.71L137.32-8.71Q136.19-8.96 135.25-9.52L135.25-9.52L135.25-9.52Q134.32-10.08 133.69-11.02L133.69-11.02L133.69-11.02Q133.06-11.95 133.06-13.46L133.06-13.46L133.06-13.46Q133.06-14.87 133.61-15.89L133.61-15.89L133.61-15.89Q134.17-16.92 135.18-17.62L135.18-17.62L135.18-17.62Q136.19-18.32 137.56-18.67L137.56-18.67L137.56-18.67Q138.92-19.01 140.54-19.01L140.54-19.01L140.54-19.01Q143.06-19.01 144.92-18.22L144.92-18.22L144.92-18.22Q146.77-17.42 148.10-16.02L148.10-16.02L146.23-14.26L146.23-14.26Q145.91-14.65 145.42-15.07L145.42-15.07L145.42-15.07Q144.94-15.48 144.23-15.82L144.23-15.82L144.23-15.82Q143.53-16.16 142.60-16.38L142.60-16.38L142.60-16.38Q141.66-16.60 140.44-16.60L140.44-16.60L140.44-16.60Q138.24-16.60 137.07-15.84L137.07-15.84L137.07-15.84Q135.90-15.08 135.90-13.64L135.90-13.64L135.90-13.64Q135.90-12.92 136.17-12.44L136.17-12.44L136.17-12.44Q136.44-11.95 136.91-11.66L136.91-11.66L136.91-11.66Q137.38-11.38 137.97-11.21L137.97-11.21L137.97-11.21Q138.56-11.05 139.18-10.94L139.18-10.94L142.09-10.51L142.09-10.51Q143.10-10.37 144.22-10.12L144.22-10.12L144.22-10.12Q145.33-9.86 146.27-9.31L146.27-9.31L146.27-9.31Q147.20-8.75 147.83-7.81L147.83-7.81L147.83-7.81Q148.46-6.88 148.46-5.36L148.46-5.36L148.46-5.36Q148.46-2.59 146.32-1.08L146.32-1.08L146.32-1.08Q144.18 0.43 140.62 0.43ZM162 0.32L162 0.32L162 0.32Q160.52 0.32 159.93-0.29L159.93-0.29L159.93-0.29Q159.34-0.90 159.34-1.84L159.34-1.84L159.34-2.48L159.34-2.48Q159.34-3.42 159.93-4.03L159.93-4.03L159.93-4.03Q160.52-4.64 162-4.64L162-4.64L162-4.64Q163.48-4.64 164.07-4.03L164.07-4.03L164.07-4.03Q164.66-3.42 164.66-2.48L164.66-2.48L164.66-1.84L164.66-1.84Q164.66-0.90 164.07-0.29L164.07-0.29L164.07-0.29Q163.48 0.32 162 0.32ZM178.31 0L175.00 0L181.91-9.43L175.18-18.58L178.63-18.58L181.44-14.65L183.67-11.56L183.82-11.56L185.98-14.65L188.75-18.58L192.06-18.58L185.26-9.47L192.24 0L188.78 0L185.65-4.36L183.53-7.31L183.38-7.31L181.33-4.36L178.31 0ZM208.08-10.80L211.21-18.58L214.09-18.58L204.88 4.07L204.88 4.07Q204.55 4.86 204.16 5.45L204.16 5.45L204.16 5.45Q203.76 6.05 203.22 6.43L203.22 6.43L203.22 6.43Q202.68 6.80 201.92 7.00L201.92 7.00L201.92 7.00Q201.17 7.20 200.12 7.20L200.12 7.20L197.39 7.20L197.39 4.75L201.71 4.75L203.80-0.36L196.31-18.58L199.26-18.58L202.39-10.80L205.16-3.74L205.31-3.74L208.08-10.80ZM234.54 0L219.06 0L219.06-2.77L231.05-16.13L219.46-16.13L219.46-18.58L234.18-18.58L234.18-15.80L222.19-2.45L234.54-2.45L234.54 0Z" fill="url(#editing-gradient-gradient)"></path></g></g><style>text {
  font-size: 64px;
  font-family: Arial Black;
  dominant-baseline: central;
  text-anchor: middle;
}</style></svg>