<?xml version="1.0" encoding="UTF-8"?>
<!DOCTYPE svg PUBLIC "-//W3C//DTD SVG 1.1//EN" "http://www.w3.org/Graphics/SVG/1.1/DTD/svg11.dtd">
<svg xmlns="http://www.w3.org/2000/svg" version="1.1" width="200px" height="200px" style="shape-rendering:geometricPrecision; text-rendering:geometricPrecision; image-rendering:optimizeQuality; fill-rule:evenodd; clip-rule:evenodd" xmlns:xlink="http://www.w3.org/1999/xlink">
<g><path style="opacity:1" fill="#165cd4" d="M -0.5,-0.5 C 6.16667,-0.5 12.8333,-0.5 19.5,-0.5C 19.5,59.5 19.5,119.5 19.5,179.5C 72.8333,179.5 126.167,179.5 179.5,179.5C 179.5,172.833 179.5,166.167 179.5,159.5C 132.833,159.5 86.1667,159.5 39.5,159.5C 39.5,112.833 39.5,66.1667 39.5,19.5C 86.1667,19.5 132.833,19.5 179.5,19.5C 179.5,12.8333 179.5,6.16667 179.5,-0.5C 186.167,-0.5 192.833,-0.5 199.5,-0.5C 199.5,66.1667 199.5,132.833 199.5,199.5C 132.833,199.5 66.1667,199.5 -0.5,199.5C -0.5,132.833 -0.5,66.1667 -0.5,-0.5 Z M 59.5,39.5 C 99.5,39.5 139.5,39.5 179.5,39.5C 179.5,72.8333 179.5,106.167 179.5,139.5C 139.5,139.5 99.5,139.5 59.5,139.5C 59.5,132.833 59.5,126.167 59.5,119.5C 92.8333,119.5 126.167,119.5 159.5,119.5C 159.5,99.5 159.5,79.5 159.5,59.5C 126.167,59.5 92.8333,59.5 59.5,59.5C 59.5,52.8333 59.5,46.1667 59.5,39.5 Z M 59.5,79.5 C 86.1667,79.5 112.833,79.5 139.5,79.5C 139.5,86.1667 139.5,92.8333 139.5,99.5C 112.833,99.5 86.1667,99.5 59.5,99.5C 59.5,92.8333 59.5,86.1667 59.5,79.5 Z"/></g>
</svg>
